<svg width="200" height="150" viewBox="0 0 100 127.50380135068166" class="css-1j8o68f"><defs id="SvgjsDefs2021"></defs><g id="SvgjsG2022" featurekey="nameFeature-0" transform="matrix(2.6169689086196235,0,0,2.6169689086196235,0.00044478695648484567,2.5568285334505996)" fill="#aa96da"><path d="M0.42969 -0.9769999999999968 l8.0273 -0.000019073 c4.4791 0 7.4414 1.0482 8.8867 3.1445 c1.6667 1.6406 2.5 3.9908 2.5 7.0508 l0 5.4102 c0 4.4791 -2.1354 7.6953 -6.4063 9.6484 c-1.0026 0.44271 -2.3047 0.66406 -3.9063 0.66406 l-2.6953 0 l0 14.727 c0 0.11719 -0.11068 0.22787 -0.33203 0.33203 l-6.1719 0 c-0.11719 0 -0.22787 -0.11068 -0.33203 -0.33203 l0 -40.215 c0 -0.10416 0.14322 -0.24738 0.42969 -0.42967 z M0.42969 -0.4299999999999997 l0 0.3125 l0.11719 0 l0.54688 -0.097656 l0 -0.11719 c-0.32553 0 -0.54688 -0.032559 -0.66406 -0.097656 z M3.3594 -0.4299999999999997 l0 0.097656 l0.54688 0.11719 l0.21484 0 l0 -0.11719 l-0.54688 -0.097656 l-0.21484 0 z M8.2422 -0.4299999999999997 c0.013027 0.14322 0.084629 0.21484 0.21484 0.21484 l0.42969 0 c0 -0.14322 -0.071621 -0.21484 -0.21484 -0.21484 l-0.42969 0 z M10.84 -0.4299999999999997 c0 0.10416 0.11068 0.20834 0.33203 0.3125 l0.3125 0 c-0.065098 -0.20834 -0.27994 -0.3125 -0.64453 -0.3125 z M1.7383 -0.11699999999999733 l0 0.11719 c2.9428 1.3932 5.3646 3.125 7.2656 5.1953 l0.97656 0 l0 -0.097656 c-1.4323 -1.7578 -2.9492 -3.1314 -4.5508 -4.1211 c-0.97656 -0.72916 -1.6276 -1.0938 -1.9531 -1.0938 l-1.7383 0 z M4.668 -0.11699999999999733 l0 0.11719 c0.98959 0.22135 2.8646 1.7773 5.625 4.668 c0 0.35156 0.57943 0.67709 1.7383 0.97656 c1.3021 0.82031 1.9531 2.0117 1.9531 3.5742 l2.0508 -0.42969 c-0.9375 -1.9922 -2.3828 -4.0561 -4.3359 -6.1914 c-1.0547 -1.0677 -2.1354 -1.9727 -3.2422 -2.7148 l-3.7891 0 z M9.3164 -0.11699999999999733 l-0.000019073 0.11719 c0.88541 0.41666 2.3307 1.7513 4.3359 4.0039 c0.54688 0.61197 1.0156 1.3737 1.4063 2.2852 l1.7383 2.5 l0.66406 0.097656 l0.42969 -0.21484 c-0.72916 -2.2525 -2.8646 -5.0326 -6.4063 -8.3398 c0 -0.23438 -0.46875 -0.38412 -1.4063 -0.44922 l-0.76172 0 z M12.793 -0.11699999999999733 c0.15625 0.26041 0.5143 0.48178 1.0742 0.66406 l0 -0.11719 c-0.3776 -0.36459 -0.73566 -0.54688 -1.0742 -0.54688 z M0.85932 0.11699999999999733 l0 1.2891 c0 0.091152 1.1979 0.70313 3.5938 1.8359 c0 0.078125 0.9375 0.72916 2.8125 1.9531 l1.0742 0 c-1.9141 -1.9401 -3.9322 -3.3854 -6.0547 -4.3359 c-0.58594 -0.49479 -1.0612 -0.74219 -1.4258 -0.74219 z M11.934 0.11699999999999733 l-0.000019073 0.097676 c0.2474 0 1.3281 1.0482 3.2422 3.1445 c1.3021 1.5885 2.3111 3.1055 3.0273 4.5508 c0.15625 0 0.23438 0.039063 0.23438 0.11719 c0.28646 -0.078125 0.42969 -0.29947 0.42969 -0.66406 c-0.5599 -1.3802 -2.2982 -3.6197 -5.2148 -6.7188 c-0.74219 -0.35156 -1.2826 -0.52734 -1.6211 -0.52734 l-0.097656 0 z M14.746 1.073999999999998 l0 0.11719 c1.0807 0.97656 2.3111 2.4219 3.6914 4.3359 c-0.85938 -2.1875 -2.0898 -3.6719 -3.6914 -4.4531 z M0.42961 1.5230000000000032 l0 0.21484 c0.026035 0.14322 0.097656 0.21484 0.21484 0.21484 l0.11719 0 l0 -0.42969 l-0.33203 0 z M0.8593 2.1679999999999993 l0 1.3086 c0.65104 0 2.3893 0.9375 5.2148 2.8125 c0 -0.5599 0.10416 -0.92449 0.3125 -1.0938 c-2.3828 -1.7318 -4.2252 -2.7408 -5.5273 -3.0273 z M0.42961 3.3590000000000018 l0 0.21484 c0.026035 0.14322 0.097656 0.21484 0.21484 0.21484 l0.11719 0 l0 -0.3125 c-0.078125 0 -0.18881 -0.039063 -0.33203 -0.11719 z M0.8593 3.905999999999999 l0 1.5039 c0.091152 0.091152 1.0677 0.52734 2.9297 1.3086 l2.2852 1.4063 l0 -1.0742 c-1.875 -1.5755 -3.6133 -2.6236 -5.2148 -3.1445 z M6.7188 5.311999999999998 c0 0.10416 0.11068 0.21484 0.33203 0.33203 l0.3125 0 c0 -0.11719 -0.10416 -0.22787 -0.3125 -0.33203 l-0.33203 0 z M8.6719 5.311999999999998 c0 0.10416 0.11068 0.21484 0.33203 0.33203 l0.21484 0 c0 -0.11719 -0.11068 -0.22787 -0.33203 -0.33203 l-0.21484 0 z M10.293 5.311999999999998 c0.13021 0.28646 0.38412 0.42969 0.76172 0.42969 c-0.10416 -0.28646 -0.35807 -0.42969 -0.76172 -0.42969 z M0.42961 5.527000000000001 l0 0.33203 c0.078125 0 0.18881 0.032559 0.33203 0.097656 l0 -0.42969 l-0.33203 0 z M0.8593 6.073999999999998 l0 1.2891 c0 0.091152 0.90494 0.48828 2.7148 1.1914 c0.97656 0.53385 1.8099 1.1133 2.5 1.7383 l0 -1.5039 l0.097656 0 l0.21484 0.097656 l0 -0.21484 c0 -0.10416 -0.10416 -0.21484 -0.3125 -0.33203 l0 0.44922 c-1.7057 -1.3802 -3.4439 -2.2852 -5.2148 -2.7148 z M6.8359 6.073999999999998 l0 12.031 l2.9297 0 c1.6406 0 2.7213 -0.72266 3.2422 -2.168 c0.078125 -0.40365 0.11719 -0.72918 0.11719 -0.97658 l0 -5.8594 c0 -2.0182 -1.1198 -3.0273 -3.3594 -3.0273 l-2.9297 0 z M18.75 6.2890000000000015 c0.14322 0.74219 0.25391 1.4258 0.33203 2.0508 c0.14322 0 0.21484 -0.071621 0.21484 -0.21484 l0 -0.54688 c0 -0.29947 -0.14322 -0.72916 -0.42969 -1.2891 l-0.11719 0 z M6.0742 6.3870000000000005 l0 0.33203 c0 0.10416 0.10416 0.21484 0.3125 0.33203 l0 -0.33203 c0 -0.10416 -0.10416 -0.21484 -0.3125 -0.33203 z M0.42961 7.479999999999997 l0 0.21484 c0.078125 0 0.18881 0.039063 0.33203 0.11719 l0 -0.11719 c0 -0.14322 -0.071621 -0.21484 -0.21484 -0.21484 l-0.11719 0 z M0.8593 7.909999999999997 l0.000019073 1.3086 c1.237 0 2.3959 0.46875 3.4766 1.4063 c0.59896 0.74219 0.99609 1.4648 1.1914 2.168 l0.11719 0 c0.28646 -0.10416 0.42969 -0.21484 0.42969 -0.33203 l0 -1.5039 l0.3125 0.21484 l0 -0.44922 c0 -0.10416 -0.10416 -0.20832 -0.3125 -0.31248 l0 0.54688 c-1.6276 -1.5365 -3.3658 -2.5521 -5.2148 -3.0469 z M18.438 9.004000000000001 l0.52734 0.3125 l0 -0.76172 c-0.35156 0.18229 -0.52734 0.33203 -0.52734 0.44922 z M13.555 9.219000000000001 l0 0.52734 c0.14322 -0.065098 0.24738 -0.097656 0.31248 -0.097656 l0 -0.33203 c-0.065098 0 -0.16926 -0.032559 -0.31248 -0.097656 z M0.42963 9.315999999999999 l0 0.42969 l0.33203 0 l0 -0.42969 l-0.33203 0 z M13.984 9.648 l0.000019073 2.7148 c1.1979 -0.44271 2.3178 -0.66406 3.3594 -0.66406 l0.11719 0 c0.46875 0 0.97006 0.071621 1.5039 0.21484 l0 -1.9336 c-0.58594 -0.44271 -1.3412 -0.66406 -2.2656 -0.66406 c-1.0156 0.078125 -1.9206 0.18881 -2.7148 0.33203 z M19.082 9.530999999999999 l-0.000019073 0.11719 c0.013027 0.14322 0.084648 0.21484 0.21486 0.21484 l0.097656 0 l0 -0.33203 l-0.3125 0 z M0.85932 9.745999999999999 l0.000019073 1.9531 l0.11719 0 c1.3672 0 2.3047 0.6185 2.8125 1.8555 c0.8724 0.39063 1.3086 0.89193 1.3086 1.5039 c-0.13021 0.13021 -0.56641 0.2409 -1.3086 0.33205 c-0.20834 0.36459 -0.3125 0.65105 -0.3125 0.85939 c0.42969 0.091152 0.64453 0.20184 0.64453 0.33205 l0 0.11719 c-0.28646 0.39063 -0.42969 0.64453 -0.42969 0.76172 c0.3776 0.35156 0.66406 0.52734 0.85938 0.52734 l0.11719 -0.21484 l0 -0.97656 c0.19531 -0.42969 0.625 -0.85938 1.2891 -1.2891 l0.11719 0 l0 0.42969 c0.14322 -0.078125 0.24738 -0.11719 0.31248 -0.11719 l0 -0.42969 l-0.097656 0 l-0.21484 0.11719 l0 -2.168 l-0.54688 0 c-0.50781 0 -0.79428 -0.43619 -0.85938 -1.3086 c-0.97656 -1.5234 -2.2461 -2.2852 -3.8086 -2.2852 z M0.42965 11.914000000000001 l0 0.33203 l0.33203 0 l0 -0.33203 l-0.33203 0 z M19.082 12.030999999999999 l0 0.42969 l0.3125 0 l0 -0.21484 c0 -0.14322 -0.071621 -0.21484 -0.21484 -0.21484 l-0.097656 0 z M0.85934 12.245999999999999 l0 0.54688 c0.18229 0 0.87238 0.21484 2.0703 0.64453 l0 -0.21484 c-0.41666 -0.65104 -1.1068 -0.97656 -2.0703 -0.97656 z M13.984 12.793 l0 1.0742 c0.78125 -0.14322 1.6146 -0.21484 2.5 -0.21484 l1.4063 0 l1.0742 0.11719 l0 -1.3086 c-0.53385 -0.14322 -1.0352 -0.21484 -1.5039 -0.21484 l-0.97656 0 c-0.35156 0 -1.1849 0.18229 -2.5 0.54688 z M6.0742 12.793 l-0.000019073 0.42969 l0.3125 0 l0 -0.76172 c-0.10416 0 -0.20832 0.11068 -0.31248 0.33203 z M13.555 12.675999999999998 l0.000019073 0.21484 c0.14322 -0.065098 0.24738 -0.097656 0.31248 -0.097656 l0 -0.33203 l-0.097656 0 c-0.14322 0.026035 -0.21484 0.097656 -0.21484 0.21484 z M0.42965 12.793 l0 0.42969 l0.33203 0 l0 -0.42969 l-0.33203 0 z M0.85934 13.222999999999999 l0 1.5235 c0.27344 0 0.92447 0.35807 1.9531 1.0742 l0.21484 0 c0.36459 -0.79428 0.80078 -1.1914 1.3086 -1.1914 l0 -0.097656 l-0.42969 -0.33203 l-0.54688 0 c-0.065098 0 -0.097656 0.039063 -0.097656 0.11719 c-0.72916 -0.44271 -1.5299 -0.8073 -2.4023 -1.0938 z M19.082 13.867 l-0.000019073 0.21484 c0.013027 0.15625 0.084648 0.23438 0.21486 0.23438 l0.097656 0 l0 -0.23438 c0 -0.14322 -0.071621 -0.21484 -0.21484 -0.21484 l-0.097656 0 z M13.555 13.984000000000002 l0 0.54688 l0.097656 0 c0 -0.14322 0.071621 -0.21484 0.21484 -0.21484 l0 -0.33203 l-0.3125 0 z M13.984 14.414000000000001 l0 0.87893 c1.4583 -0.15625 2.3633 -0.23438 2.7148 -0.23438 c0.27344 0 1.0287 0.078125 2.2656 0.23438 l0 -0.97656 c-0.97656 -0.22135 -1.5885 -0.33203 -1.8359 -0.33203 c-1.0807 0.065098 -2.1289 0.20832 -3.1445 0.42967 z M0.42963 14.629000000000001 l0 0.33203 c0.078125 0 0.18881 0.032559 0.33203 0.097656 l0 -0.3125 c-0.078125 0 -0.18881 -0.039063 -0.33203 -0.11719 z M0.85932 15.175999999999998 l0 1.7383 c0.71615 0 1.6927 1.1523 2.9297 3.457 c0.14322 0.22135 0.25391 1.1263 0.33203 2.7148 c-0.14322 0.83334 -0.21484 1.4518 -0.21484 1.8555 c0.28646 0.40365 0.42969 0.94402 0.42969 1.6211 c0.23438 0 0.41666 -1.0482 0.54688 -3.1445 c0 -2.4219 -0.57943 -4.4076 -1.7383 -5.957 c0 -0.65104 -0.25391 -0.97656 -0.76172 -0.97656 c-0.33854 -0.58594 -0.84635 -1.0221 -1.5234 -1.3086 z M13.438 15.937000000000001 l0.11721 0 c0.14322 -0.078125 0.24738 -0.11719 0.31248 -0.11719 l0 -0.42969 c-0.19531 0.013027 -0.33854 0.19531 -0.42969 0.54688 z M13.34 17.227 c0.065098 0 0.097619 0.039043 0.097619 0.11717 l0.76172 -0.11719 l1.8359 0 c0.91146 0 1.7839 0.11068 2.6172 0.33203 l0.3125 -1.7383 c-0.53385 -0.14322 -1.3607 -0.24738 -2.4805 -0.31248 c-1.8099 0 -2.7148 0.28646 -2.7148 0.85938 z M19.082 15.508 l0 0.3125 l0.097656 0 c0.14322 0 0.21484 -0.071621 0.21484 -0.21484 l0 -0.097656 l-0.3125 0 z M5.0977 17.227 c0.065098 0.40365 0.097637 0.72918 0.097637 0.97658 c-0.32553 0.14322 -0.50131 0.29297 -0.52734 0.44922 c0.50781 1.6797 0.76172 3.6264 0.76172 5.8398 c0 0.54688 -0.14975 1.5234 -0.44922 2.9297 l0.11719 0.54688 c0.32553 0 0.61199 -0.97656 0.85939 -2.9297 l0.11719 0 l0 1.8359 l0.097656 0 l0.21484 -1.9336 l0 -0.44922 l0.23438 0 l0 -0.3125 l-0.11719 0 c-0.22135 0 -0.33203 0.25391 -0.33203 0.76172 l-0.097656 0 l0 -0.33203 c0.14322 -0.72916 0.21484 -1.3802 0.21484 -1.9531 l0 -0.42969 c0 -1.7318 -0.28646 -3.5416 -0.85938 -5.4297 l0.21484 -0.097656 l0.21484 0 c0 0.026035 0.032559 0.16926 0.097656 0.42967 l0.11719 0 l0 -1.0938 c-0.41666 0.13021 -0.74219 0.52734 -0.97656 1.1914 z M0.42959 16.699 l0 0.21484 c0.026035 0.14322 0.097656 0.21484 0.21484 0.21484 l0.11719 0 l0 -0.33203 c-0.078125 0 -0.18881 -0.032559 -0.33203 -0.097656 z M13.008 16.914 l-0.11719 0.21482 l0 0.42969 l0.11719 0 c0 -0.10416 0.071621 -0.24738 0.21484 -0.42967 c0 -0.14322 -0.071621 -0.21484 -0.21484 -0.21484 z M0.85928 17.461 l0 1.5039 c1.0938 1.25 1.6406 2.5912 1.6406 4.0234 l-0.11719 1.2891 c0.078125 0.14322 0.11719 0.25391 0.11719 0.33203 l0.64453 0 c0.22135 0 0.33203 -0.57943 0.33203 -1.7383 l0 -0.21484 c0 -2.1094 -0.83334 -3.8412 -2.5 -5.1953 l-0.11719 0 z M6.0742 17.676 l0 0.52734 c0.05209 0.36459 0.15625 0.54688 0.3125 0.54688 l0 -0.097656 c-0.14322 -0.46875 -0.21484 -0.79428 -0.21484 -0.97656 l-0.097656 0 z M13.008 18.965 l0.42971 0.54688 l2.5 -0.21484 l1.8359 0.21484 c0.36459 -0.59896 0.54688 -1.1068 0.54688 -1.5234 c-0.8724 -0.20834 -1.6667 -0.3125 -2.3828 -0.3125 l-0.54688 0 c-1.4453 0 -2.168 0.21484 -2.168 0.64453 c-0.14322 0.23438 -0.21484 0.44922 -0.21484 0.64453 z M18.652 17.676 c0 0.065098 -0.039063 0.16928 -0.11719 0.3125 l0.42969 0 l0 -0.3125 l-0.3125 0 z M11.934 18.418 l0.000019073 0.11719 l0.42969 0 c0.10416 0 0.20832 -0.11068 0.31248 -0.33203 l0 -0.21484 l-0.097656 0 c-0.28646 0.28646 -0.50131 0.42969 -0.64453 0.42969 z M10.41 18.535 l0.000019073 0.11721 c0.32553 0 0.54037 0.032559 0.64453 0.097656 c0.36459 -0.091152 0.54688 -0.20184 0.54688 -0.33205 c-0.078125 0 -0.18881 -0.032559 -0.33203 -0.097656 c-0.36459 0.14322 -0.65105 0.21484 -0.85939 0.21484 z M7.9102 18.535 l0 0.33203 l1.4063 0 c0.11719 0 0.22787 -0.11068 0.33203 -0.33203 l-1.7383 0 z M0.42965 18.75 l0 0.42969 c0 0.11719 0.11068 0.22787 0.33203 0.33203 l0 -0.42969 c0 -0.11719 -0.11068 -0.22787 -0.33203 -0.33203 z M7.4805 21.465 c0 0.39063 0.18229 0.67711 0.54688 0.85939 c0.41666 0 0.67057 -0.32553 0.76172 -0.97656 c0.57291 -0.57291 1.0417 -0.85938 1.4063 -0.85938 l0.52734 0 c1.2109 0 1.9336 0.97656 2.168 2.9297 l0.54688 0 l0 0.097656 c-0.9375 0.22135 -1.4063 0.40363 -1.4063 0.54686 l0 0.21484 c1.3802 -0.42969 2.0703 -0.71615 2.0703 -0.85938 l-0.66406 0 l0 -0.11719 c0.35156 0 1.0026 -0.35807 1.9531 -1.0742 c-0.3776 -0.65104 -1.0612 -0.97656 -2.0508 -0.97656 c-0.11719 -0.091152 -0.22787 -0.52734 -0.33203 -1.3086 c-0.66406 -0.71615 -1.276 -1.0742 -1.8359 -1.0742 c-1.9922 0 -3.151 0.57943 -3.4766 1.7383 c-0.14322 0.26041 -0.21484 0.54688 -0.21484 0.85938 z M6.6211 18.965 l0 0.11721 c0 0.57291 0.071621 1.1849 0.21484 1.8359 l0.097656 0 c0 -0.19531 0.29297 -0.73568 0.87891 -1.6211 l0 -0.33203 l-1.1914 0 z M17.676 19.844 l0.42969 -0.000019073 l0 -0.21484 l-0.21484 0 c-0.14322 0.013027 -0.21484 0.084648 -0.21484 0.21486 z M13.652 20.605 c0.6901 0.28646 1.3412 0.42969 1.9531 0.42969 l0.42969 0 c0.65104 0 1.1588 -0.39713 1.5234 -1.1914 c-0.65104 0 -1.0807 -0.039063 -1.2891 -0.11719 c-1.7448 0.13021 -2.6172 0.42318 -2.6172 0.87891 z M0.85936 20.059 l-0.000019073 0.97654 c0.22135 0.97656 0.33203 1.6602 0.33203 2.0508 l0 0.21484 c0 0.40365 -0.11068 0.95053 -0.33203 1.6406 l0 1.5039 c0.16928 0 0.31902 -0.39713 0.44924 -1.1914 c0.35156 0 0.52734 -0.82682 0.52734 -2.4805 c0 -0.80729 -0.28646 -1.7122 -0.85938 -2.7148 l-0.11719 0 z M0.42965 20.82 l0 0.52734 l0.21484 1.3086 l0.11719 0 l0 -1.1914 c0 -0.3776 -0.11068 -0.59244 -0.33203 -0.64453 z M9.5313 21.797 c0.15625 0.013027 0.23438 0.084572 0.23438 0.21479 l0 0.42969 c0 0.36459 -0.039063 0.90496 -0.11719 1.6211 l0.85938 0 c0 -0.41666 0.071621 -1.3216 0.21484 -2.7148 c-0.065098 -0.14322 -0.097656 -0.24738 -0.097656 -0.31248 l-0.21484 0 c-0.58594 0 -0.87891 0.25391 -0.87891 0.76172 z M16.484 21.348 l0.21482 0.11717 l0.21484 0 c0 -0.10416 0.071621 -0.24738 0.21484 -0.42967 l-0.33203 0 c-0.10416 0 -0.20832 0.10416 -0.31248 0.3125 z M11.172 21.348 c-0.078125 1.0938 -0.11719 1.888 -0.11719 2.3828 l0 0.23438 l0.21484 0 c0.65104 0 0.97656 -0.32553 0.97656 -0.97656 l0 -0.33203 c0 -0.41666 -0.28646 -0.85285 -0.85938 -1.3086 l-0.21484 0 z M15.723 21.68 l0.21484 0.11717 c0 -0.15625 0.11068 -0.23438 0.33203 -0.23438 l0 -0.097656 l-0.33203 0 c-0.14322 0.013027 -0.21484 0.084648 -0.21484 0.21486 z M15.723 22.012 l-0.21482 0.3125 l0 0.33203 c0.10416 0 0.24738 -0.14322 0.42967 -0.42969 c0 -0.14322 -0.071621 -0.21484 -0.21484 -0.21484 z M6.9336 22.109 c-0.065098 0.72916 -0.097656 1.2695 -0.097656 1.6211 l0 0.11719 l-0.11719 0.21484 l0.97656 0 l0 -0.97656 c-0.41666 -0.65104 -0.67057 -0.97656 -0.76172 -0.97656 z M8.125 24.061999999999998 l0.97656 0 c0.078125 -0.625 0.11719 -1.0221 0.11719 -1.1914 l-0.11719 0 c-0.65104 0 -0.97656 0.39713 -0.97656 1.1914 z M0.64449 23.418 l-0.21484 1.2891 l0 0.44922 c0.22135 -0.078125 0.33203 -0.29947 0.33203 -0.66406 l0 -1.0742 l-0.11719 0 z M10.508 24.277 l0 0.11717 l0.44922 0 l0 -0.33203 l-0.23438 0 c-0.14322 0.013027 -0.21484 0.084648 -0.21484 0.21486 z M7.8125 24.18 l0 0.3125 l0.21484 0 l0 -0.3125 l-0.21484 0 z M9.1016 24.18 l0 0.3125 l0.21484 0 c0.14322 0 0.21484 -0.071621 0.21484 -0.21484 l0 -0.097656 l-0.42969 0 z M1.7382 26.23 l0 1.0938 c0 0.14322 -0.071621 0.21484 -0.21484 0.21484 l-0.66406 -0.33203 l0 2.9297 c1.3802 0.33854 2.0703 1.3477 2.0703 3.0273 l0 0.11719 c-0.6901 1.224 -1.3802 1.8359 -2.0703 1.8359 l0 2.5 c1.4713 -1.0287 2.3764 -1.7188 2.7148 -2.0703 l0.11719 0 c0.14322 0.026035 0.21484 0.10416 0.21484 0.23438 c-0.23438 0.48178 -1.25 1.2761 -3.0469 2.3828 l0 0.97656 l0.66406 0 c0.91146 -0.20834 2.2852 -1.1523 4.1211 -2.832 l0.3125 0 l0 0.11719 c-0.79428 1.2109 -1.8034 2.0768 -3.0273 2.5977 l0 0.11719 l1.7383 0 l1.4063 -0.87891 l0 0.42969 l0.097656 0 c0.14322 0 0.21484 -0.071621 0.21484 -0.21484 l0 -0.3125 l-0.097656 0 l-0.21484 0.097656 l0 -4.3359 l0.21484 0.11719 l0.097656 0 l0 -0.33203 c0 -0.10416 -0.10416 -0.21484 -0.3125 -0.33203 l0 0.54688 c-1.0156 -0.28646 -1.5234 -0.61199 -1.5234 -0.97658 l0 -0.3125 l0.11719 -0.66406 c-0.078125 -0.11719 -0.11719 -0.29297 -0.11719 -0.52734 l0.11719 0 c-0.026035 -0.48178 -0.35156 -1.0612 -0.97656 -1.7383 l0 -0.42969 c0.57291 0 0.85938 -0.54688 0.85938 -1.6406 c-0.29947 -0.28646 -0.65754 -0.42969 -1.0742 -0.42969 c0 -0.18229 0.10416 -0.46875 0.3125 -0.85938 c-0.11719 -0.79428 -0.47525 -1.1914 -1.0742 -1.1914 c-0.65104 0.20834 -0.97656 0.56641 -0.97656 1.0742 z M0.42965 26.66 l0 0.54688 l0.11719 0 c0.14322 0 0.21484 -0.071621 0.21484 -0.21484 l0 -0.33203 l-0.33203 0 z M5.957 27.637 c0 0.22135 -0.35807 1.0156 -1.0742 2.3828 c0.14322 0.29947 0.21484 0.52082 0.21484 0.66404 l0.097656 0 c0.50781 -0.54688 0.76172 -0.944 0.76172 -1.1914 l0.11719 0 l0 0.64453 c0.20834 -0.078125 0.3125 -0.29297 0.3125 -0.64453 l0 -0.44922 l-0.097656 0 l-0.11719 0.44922 l-0.097656 0 l0 -1.8555 l-0.11719 0 z M0.42965 30.136699999999998 l0 0.42969 l0.33203 0 l0 -0.33203 c-0.078125 0 -0.18881 -0.032559 -0.33203 -0.097656 z M5.957 30.4687 c-0.50781 1.0547 -0.76172 1.8099 -0.76172 2.2656 c0.078125 0 0.11719 0.039063 0.11719 0.11719 c0.078125 0 0.33203 -0.18229 0.76172 -0.54688 l0 0.85938 l0.097656 0 c0 -0.10416 0.071621 -0.24738 0.21484 -0.42967 l0 -0.76172 l-0.097656 0 c0 0.22135 -0.071621 0.33203 -0.21484 0.33203 l0 -1.8359 l-0.11719 0 z M0.85934 30.7812 l-0.000019073 1.8555 l0.11719 0 c0.13021 0 0.41668 -0.32553 0.85939 -0.97656 c-0.23438 -0.58594 -0.5599 -0.87891 -0.97656 -0.87891 z M0.85932 33.2812 l-0.000019073 1.0742 c0.95053 -0.46875 1.4258 -1.0417 1.4258 -1.7188 l-0.23438 -0.11719 c-0.57291 0.50781 -0.97004 0.76172 -1.1914 0.76172 z M0.42961 33.1641 l0 0.33203 c0.14322 -0.078125 0.25391 -0.11719 0.33203 -0.11719 l0 -0.42969 l-0.11719 0 c-0.14322 0.026035 -0.21484 0.097656 -0.21484 0.21484 z M0.42961 34.5703 l0 0.66406 c0.14322 -0.078125 0.25391 -0.11719 0.33203 -0.11719 l0 -0.64453 c-0.14322 0.065098 -0.25391 0.097656 -0.33203 0.097656 z M0.42961 37.832 l0 0.42969 c0.14322 -0.065098 0.25391 -0.097656 0.33203 -0.097656 l0 -0.33203 l-0.33203 0 z M5.7422 39.02336 l0 0.11719 l0.33203 0 l0 -0.23438 c-0.14322 0.078125 -0.25391 0.11719 -0.33203 0.11719 z M1.0937 39.45305 l0 0.11719 l0.64453 0 l0.76172 -0.21484 l0 -0.11719 l-0.66406 0 z M4.1211 39.45305 l0.000019073 0.11719 l0.76172 0 c0.18229 -0.14322 0.32551 -0.21484 0.42967 -0.21484 l0 -0.11719 l-0.42969 0 z M31.8642828125 -0.9769999999999968 l5.918 0 c0.11719 0 0.26041 0.14322 0.42969 0.42969 l0 29.688 c0 4.44 -1.5755 7.5586 -4.7266 9.3555 c-1.3412 1.0026 -2.9883 1.5039 -4.9414 1.5039 l-0.76172 0 c-2.435 -0.078125 -3.6523 -0.36459 -3.6523 -0.85938 c0.50781 -3.8021 0.86588 -5.8072 1.0742 -6.0156 l0.11719 0 c1.0026 0.14322 1.7513 0.21484 2.2461 0.21484 c1.7188 0 2.8646 -0.50131 3.4375 -1.5039 c0.28646 -0.44271 0.42969 -0.87891 0.42969 -1.3086 l0 -31.074 c0 -0.10416 0.14322 -0.24738 0.42969 -0.42967 z M32.7431828125 -0.2150000000000034 l0.42969 0 c0.10416 0 0.20832 -0.11068 0.31248 -0.33203 l-0.42969 0 c-0.10416 0 -0.20832 0.11068 -0.31248 0.33203 z M34.9888828125 -0.2150000000000034 l0.21484 0 c0.3776 0 0.59244 -0.11068 0.64453 -0.33203 l-0.21484 0 c-0.42969 0.039063 -0.64453 0.14975 -0.64453 0.33203 z M32.7431828125 0.7419999999999973 c1.0547 -0.49479 1.6276 -0.74219 1.7188 -0.74219 l0 -0.11719 l-1.1914 0 c-0.35156 0.15625 -0.52734 0.44271 -0.52734 0.85938 z M33.4853828125 1.171999999999997 l1.7187 1.0742 c0.5599 0 1.2761 -0.319 2.1484 -0.95703 l0 -1.4063 l-1.8164 0 z M31.8642828125 0.4299999999999997 l0 0.42967 c0.078125 0 0.18881 0.032559 0.33203 0.097656 l0 -0.74219 l-0.11719 0 c-0.14322 0.013027 -0.21484 0.084648 -0.21484 0.21486 z M32.2939828125 1.171999999999997 l-0.000019073 2.4805 c0 0.10416 0.79428 0.63801 2.3828 1.6015 c1.1068 1.0417 1.9986 1.7643 2.6758 2.168 l0 -3.2422 c-2.3568 -1.5365 -4.043 -2.5391 -5.0586 -3.0078 z M37.4698828125 1.3870000000000005 l0 0.42969 c0.14322 0 0.21484 -0.071621 0.21484 -0.21484 l0 -0.21484 l-0.21484 0 z M36.0638828125 2.7929999999999993 l0.85939 0.52732 l0.11719 0 c0.10416 0 0.20832 -0.10416 0.31248 -0.3125 l0 -1.0742 c-0.78125 0.40365 -1.2109 0.69012 -1.2891 0.85939 z M37.4698828125 3.222999999999999 l0 1.0742 l0.21484 0 l0 -0.33203 c0 -0.065098 -0.039063 -0.097656 -0.11719 -0.097656 l0.11719 -0.21484 l0 -0.64453 c-0.14322 0.013027 -0.21484 0.084648 -0.21484 0.21486 z M31.8642828125 3.652000000000001 l0 0.3125 c0 0.11719 0.11068 0.22787 0.33203 0.33203 l0 -0.54688 c-0.078125 0 -0.18881 -0.032559 -0.33203 -0.097656 z M32.2939828125 4.5120000000000005 l0.000019073 0.74219 c0.49479 0.22135 2.1811 1.4453 5.0586 3.6719 l0 -0.97656 l-4.9414 -3.4375 l-0.11719 0 z M31.8642828125 5.0390000000000015 l0 0.33205 c0 0.10416 0.11068 0.20832 0.33203 0.31248 l0 -0.3125 c0 -0.10416 -0.11068 -0.21484 -0.33203 -0.33203 z M32.2939828125 5.898000000000003 l0 1.289 c0.70313 0.22135 2.3568 1.4063 4.9609 3.5547 l0.097656 0 l0 -0.95703 c-1.6797 -1.5495 -3.3268 -2.8451 -4.9414 -3.8867 l-0.11719 0 z M31.8642828125 6.972999999999999 l0 0.21484 c0 0.11719 0.11068 0.22787 0.33203 0.33203 l0 -0.42969 c-0.078125 0 -0.18881 -0.039063 -0.33203 -0.11719 z M32.2939828125 7.734000000000002 l-0.000019073 0.85938 c0.44271 0 2.1289 1.2565 5.0586 3.7695 l0 -0.76172 c-1.6667 -1.5365 -3.3529 -2.8256 -5.0586 -3.8672 z M37.4698828125 7.734000000000002 l-0.000019073 0.21484 c0.013027 0.14322 0.084648 0.21484 0.21486 0.21484 l0 -0.42969 l-0.21484 0 z M31.8642828125 8.379000000000001 l0 0.33203 c0.026035 0.14322 0.097656 0.21484 0.21484 0.21484 l0.11719 0 l0 -0.42969 c-0.078125 0 -0.18881 -0.039063 -0.33203 -0.11719 z M32.2939828125 9.140999999999998 l0 1.0742 c0 0.091152 0.22135 0.26693 0.66406 0.52734 c0.63803 -0.14322 0.95703 -0.28645 0.95703 -0.42967 c-0.41666 -0.42969 -0.95703 -0.82031 -1.6211 -1.1719 z M37.4698828125 9.238 l-0.000019073 0.33203 c0.013027 0.14322 0.084648 0.21484 0.21486 0.21484 l0 -0.33203 c0 -0.14322 -0.071621 -0.21484 -0.21484 -0.21484 z M31.8642828125 10.097999999999999 l0 0.42969 c0.026035 0.14322 0.097656 0.21484 0.21484 0.21484 l0.11719 0 l0 -0.3125 c0 -0.11719 -0.11068 -0.22787 -0.33203 -0.33203 z M32.2939828125 11.074000000000002 l0 0.64453 l0.11719 0 l0.11719 -0.54688 z M33.0556828125 11.719000000000001 l0 0.097675 c0 0.14322 0.35807 0.25391 1.0742 0.33203 l0 0.64453 c0 0.66406 -0.61197 1.237 -1.8359 1.7188 l0 0.97656 l0.11719 0 c1.4844 -0.5599 2.7018 -1.3867 3.6523 -2.4805 l0 -0.42969 c0 -0.71615 -0.60547 -1.2175 -1.8164 -1.5039 l-0.54688 0 c-0.28646 0.42969 -0.50131 0.64453 -0.64453 0.64453 z M37.4698828125 11.074000000000002 l-0.000019073 0.42969 c0.013027 0.14322 0.084648 0.21484 0.21486 0.21484 l0 -0.64453 l-0.21484 0 z M31.8642828125 11.815999999999999 l0 0.33205 c0 0.10416 0.11068 0.20832 0.33203 0.31248 l0 -0.52734 c-0.078125 0 -0.18881 -0.039063 -0.33203 -0.11719 z M37.4698828125 12.578 l0 1.3867 l0.097656 0 l0.11719 -0.52734 l0 -0.64453 c0 -0.14322 -0.071621 -0.21484 -0.21484 -0.21484 z M32.2939828125 12.675999999999998 l0 0.97656 l0.11719 0.21484 c0.28646 -0.10416 0.42969 -0.21484 0.42969 -0.33203 l0 -0.21484 c-0.2474 -0.42969 -0.42969 -0.64453 -0.54688 -0.64453 z M33.2704828125 12.675999999999998 l0 0.21484 l0.11719 0 l0 -0.21484 l-0.11719 0 z M33.3876828125 22.148 c0 3.3463 0.85938 5.5664 2.5781 6.6602 l0 -0.097656 c-0.79428 -1.7578 -1.1914 -3.4049 -1.1914 -4.9414 c-0.05209 0 -0.15625 -0.61197 -0.3125 -1.8359 c0.11719 -0.23438 0.26041 -1.3802 0.42969 -3.4375 c0.26041 -0.92447 1.0807 -2.7213 2.4609 -5.3906 l-0.21484 -0.097656 c-2.5 2.4219 -3.75 5.4688 -3.75 9.1406 z M31.8642828125 13.535 l0 0.97656 l0.33203 0 l0 -0.64453 c0 -0.10416 -0.11068 -0.21484 -0.33203 -0.33203 z M37.2548828125 14.512 c-1.4323 2.9166 -2.1484 5.3906 -2.1484 7.4219 c0.35156 3.3334 0.74219 5.267 1.1719 5.8008 l0.97656 2.2656 l0.097656 0 l0 -2.0508 l-0.95703 -2.793 c0 -2.6693 0.319 -5.0717 0.95703 -7.207 l0 -3.4375 l-0.097656 0 z M32.2939828125 17.734 l0 6.8945 c0.13021 0.85938 0.42318 1.2891 0.87891 1.2891 l0 -0.11719 c-0.22135 -1.3932 -0.33203 -2.5064 -0.33203 -3.3398 l0 -1.5039 c0 -1.3021 0.39713 -2.9102 1.1914 -4.8242 c0.28646 -0.22135 0.42969 -0.54688 0.42969 -0.97656 c-1.224 0.44271 -1.8359 1.0547 -1.8359 1.8359 c-0.14322 0.013027 -0.25391 0.26043 -0.33203 0.74221 z M31.8642828125 15.918 l0 0.42967 l0.11719 0 c0 -0.14322 0.071621 -0.21484 0.21484 -0.21484 l0 -0.42969 l-0.11719 0 c-0.14322 0.013027 -0.21484 0.084648 -0.21484 0.21486 z M32.0790828125 16.777 c-0.14322 0.45572 -0.21484 0.77475 -0.21484 0.95703 l0 1.0742 l0.11719 0 c0.14322 -0.82031 0.21484 -1.3932 0.21484 -1.7188 l0 -0.3125 l-0.11719 0 z M37.5678828125 17.852 l-0.097656 0.52734 l0 0.76172 l0.097656 0 l0.11719 -0.76172 l0 -0.52734 l-0.11719 0 z M37.2548828125 20.645 c-0.22135 1.3802 -0.33203 2.6693 -0.33203 3.8672 l0.33203 1.5039 l0.097656 0 l0 -5.3711 l-0.097656 0 z M31.8642828125 23.77 l0 2.0313 c0.078125 0 0.18881 0.039063 0.33203 0.11719 l0 -0.85938 c0 -0.36459 -0.071621 -0.79428 -0.21484 -1.2891 l-0.11719 0 z M32.2939828125 26.133 l-0.000019073 2.8906 c0.36459 0 1.8034 1.3672 4.3164 4.1016 l0.21484 0.097656 c0.28646 -0.76822 0.42969 -1.5234 0.42969 -2.2656 c-3.151 -3.2162 -4.8047 -4.8242 -4.9609 -4.8242 z M37.4698828125 26.992 l0 0.64453 l0.097656 0.52734 l0.11719 0 l0 -0.42969 l-0.11719 -0.74219 l-0.097656 0 z M31.8642828125 28.711 l0 0.31248 c0 0.11719 0.11068 0.22787 0.33203 0.33203 l0 -0.33203 c0 -0.10416 -0.11068 -0.20832 -0.33203 -0.31248 z M32.2939828125 29.57 l0 1.2891 c0.13021 0 1.4258 1.2174 3.8867 3.6523 l0.097656 0 c0.22135 -0.48178 0.33203 -0.76824 0.33203 -0.85939 c-0.18229 0 -1.4713 -1.2565 -3.8672 -3.7695 z M37.3528828125 30.4297 l0 0.52734 c0.026035 0.14322 0.097656 0.21484 0.21484 0.21484 l0.11719 0 l0 -0.52734 c0 -0.14322 -0.071621 -0.21484 -0.21484 -0.21484 l-0.11719 0 z M31.8642828125 30.5273 l0 0.33203 c0.026035 0.14322 0.097656 0.21484 0.21484 0.21484 l0.11719 0 l0 -0.21484 c0 -0.10416 -0.11068 -0.21484 -0.33203 -0.33203 z M32.0790828125 31.386699999999998 c0 0.22135 -0.14322 0.58594 -0.42969 1.0938 c1.3802 0.8724 2.7084 1.875 3.9844 3.0078 l0.21484 -0.33203 l0 -0.097656 l-3.6523 -3.6719 l-0.11719 0 z M31.2196828125 32.2656 l-0.21484 0.3125 l0.21484 0.11719 c0.14322 0 0.21484 -0.071621 0.21484 -0.21484 s-0.071621 -0.21484 -0.21484 -0.21484 z M31.2196828125 32.793 c-0.36459 0.50781 -0.68359 0.76172 -0.95703 0.76172 l0 0.097656 c1.2891 0.85938 2.6498 1.9727 4.082 3.3398 l0.85938 -0.97656 c-1.6797 -1.7578 -3.0078 -2.832 -3.9844 -3.2227 z M29.2861828125 33.5547 c0.026035 0.14322 0.097656 0.21484 0.21484 0.21484 l0.21484 0 c0.14322 0 0.21484 -0.071621 0.21484 -0.21484 c-0.14322 0 -0.21484 -0.039063 -0.21484 -0.11719 c-0.11719 0.078125 -0.26041 0.11719 -0.42969 0.11719 z M36.8248828125 33.4375 c0 0.078125 -0.039063 0.18881 -0.11719 0.33203 l0.33203 0.21484 l0 -0.33203 c0 -0.14322 -0.071621 -0.21484 -0.21484 -0.21484 z M26.8251828125 33.7695 l0 0.097656 l0.74219 0.21484 l0.33203 0 c-0.078125 -0.20834 -0.29297 -0.3125 -0.64453 -0.3125 l-0.42969 0 z M28.3290828125 34.082 c1.3281 0.96354 2.9037 2.1811 4.7266 3.6523 l0.21484 0 c0.42969 -0.26041 0.64453 -0.43619 0.64453 -0.52734 c-1.4453 -1.3151 -2.8775 -2.3893 -4.2969 -3.2227 c-0.50781 0.065098 -0.9375 0.097656 -1.2891 0.097656 z M25.7508828125 34.082 l-0.000019073 0.42969 c2.0703 1.0417 4.0365 2.3697 5.8984 3.9844 l0.21484 0 c0.36459 -0.22135 0.6185 -0.33203 0.76172 -0.33203 c-2.8646 -2.6432 -4.7982 -3.9648 -5.8008 -3.9648 c-0.26041 -0.078125 -0.61848 -0.11719 -1.0742 -0.11719 z M25.3211828125 34.4141 l0 0.42969 l0.21484 0 c0 -0.078125 0.032559 -0.18881 0.097656 -0.33203 l-0.21484 -0.097656 l-0.097656 0 z M36.1808828125 34.7266 l-0.11719 0.42969 l0.21484 0.11719 l0.21484 -0.42969 l-0.21484 -0.11719 l-0.097656 0 z M25.6336828125 35.0586 l-0.21482 0.95703 c1.8099 1.0287 3.3529 2.0313 4.6289 3.0078 c0.53385 -0.14322 0.89191 -0.21484 1.0742 -0.21484 c-2.1484 -1.888 -3.9779 -3.1381 -5.4883 -3.75 z M35.3208828125 36.0156 l0.31248 0.21482 c0 -0.10416 0.071621 -0.24738 0.21484 -0.42967 l-0.21484 -0.097656 c-0.10416 0 -0.20832 0.10416 -0.31248 0.3125 z M24.9891628125 36.2305 l0 0.11719 c0.078125 0 0.18881 0.032559 0.33203 0.097656 l0 -0.42969 l-0.11719 0 c-0.14322 0.026035 -0.21484 0.097656 -0.21484 0.21484 z M25.3211828125 36.5625 c0 0.33854 -0.039063 0.69662 -0.11719 1.0742 c0.46875 0.18229 0.79428 0.39713 0.97656 0.64453 c0.97656 0.57291 1.5495 0.85938 1.7188 0.85938 l1.1719 0 c-0.61197 -0.66406 -1.862 -1.5234 -3.75 -2.5781 z M34.0321828125 37.3047 l0.21484 0.11719 l0.21484 0 l0 -0.11719 c0 -0.14322 -0.071621 -0.21484 -0.21484 -0.21484 c-0.14322 0.026035 -0.21484 0.097656 -0.21484 0.21484 z M24.8915028125 37.4219 l-0.11719 0.21484 l0.11719 1.0742 l0.097656 0 c0.078125 -0.625 0.11719 -1.0221 0.11719 -1.1914 z M32.8407828125 38.164 l0.11719 0.21482 c0.28646 -0.10416 0.42969 -0.20832 0.42969 -0.31248 l-0.21484 -0.11719 l-0.11719 0 c-0.14322 0.026035 -0.21484 0.097656 -0.21484 0.21484 z M25.5360828125 38.4961 l-0.000019073 0.3125 c0 0.14322 0.35807 0.25391 1.0742 0.33203 c-0.3776 -0.39063 -0.73566 -0.60547 -1.0742 -0.64453 z M31.3366828125 38.9257 l0.21486 0.097637 c0.14322 -0.065098 0.24738 -0.097656 0.31248 -0.097656 c0 -0.14322 -0.071621 -0.21484 -0.21484 -0.21484 l-0.097656 0 c-0.14322 0.013027 -0.21484 0.084648 -0.21484 0.21486 z M24.9891628125 38.9257 l0 0.3125 l0.54688 0.11719 l0 -0.11719 c0 -0.15625 -0.18229 -0.26041 -0.54688 -0.3125 z M29.4032828125 39.35541 l0.21484 0.097637 l0.52734 0 l0 -0.097656 c0 -0.14322 -0.071621 -0.21484 -0.21484 -0.21484 l-0.3125 0 c-0.14322 0.013027 -0.21484 0.084648 -0.21484 0.21486 z M27.0400828125 39.2382 c0 0.078125 -0.039063 0.18881 -0.11719 0.33203 l1.0742 0 c-0.065098 -0.22135 -0.27994 -0.33203 -0.64453 -0.33203 l-0.3125 0 z"></path></g><g id="SvgjsG2023" featurekey="sloganFeature-0" transform="matrix(0.49452930353626257,0,0,0.49452930353626257,10.603325764462838,116.4856890715672)" fill="#aa96da"><path d="M8.38 8.48 c0 2.9 -3.74 4.72 -6.4 5.66 l-0.94 4.28 l-2.26 -0.48 l0.72 -3.34 l-0.48 -2 c0.32 -0.06 0.64 -0.16 0.98 -0.26 l1.02 -4.66 c-0.3 0.08 -0.58 0.16 -0.86 0.28 l-0.8 -2.18 c1.2 -0.44 5.28 -1.72 7.62 -0.08 c0.92 0.64 1.4 1.6 1.4 2.78 z M2.56 11.4 c1.9 -0.82 3.5 -1.9 3.5 -2.92 c0 -0.54 -0.2 -0.74 -0.4 -0.88 c-0.46 -0.32 -1.22 -0.44 -2.18 -0.38 z M22.8725 19.7 l-1.72 1.56 l-6.86 -7.54 l-1.08 4.46 l-2.24 -0.54 l2.2 -9.24 c-0.3 0.12 -0.6 0.24 -0.92 0.38 l-0.96 -2.1 c5.1 -2.32 7.4 -1.32 8.32 -0.5 c0.92 0.8 1.24 2 0.86 3.22 c-0.56 1.84 -2.52 2.72 -4.12 3.16 z M15.732499999999998 7.640000000000001 l-0.68 2.84 c1.3 -0.26 2.92 -0.82 3.2 -1.76 c0.08 -0.24 0.1 -0.56 -0.16 -0.8 c-0.36 -0.32 -1.14 -0.48 -2.36 -0.28 z M34.004999999999995 13.54 l-1.7 0.16 l0.76 6.58 l-2.3 0.26 l-0.76 -6.62 l-3.96 0.36 l-1.82 3.42 l-2.04 -1.08 l1.12 -2.12 l-0.22 -2.26 l1.5 -0.14 l4.46 -8.34 l2.16 0.42 l0.84 7.22 l1.74 -0.18 z M27.365 11.84 l2.36 -0.24 l-0.4 -3.46 z M47.457499999999996 4.539999999999999 l-5.32 0.18 l-2.84 17.56 l-2.28 -0.46 l2.74 -17.02 l-4.36 0.14 l-0.06 -2.32 l12.04 -0.4 z M53.85 4.699999999999999 l2.04 1.12 l-9 16.2 l-2.02 -1.12 l3.52 -6.36 l-3.52 -6.62 l2.04 -1.08 l2.82 5.28 z M61.4025 17.6 c-0.14 0 -0.28 0 -0.4 -0.02 c-1.04 -0.14 -1.88 -0.62 -2.44 -1.4 c-1.5 -2.06 -0.74 -5.82 -0.1 -9.12 l2.28 0.44 c-0.5 2.56 -1.2 6.08 -0.3 7.32 c0.12 0.18 0.34 0.4 0.86 0.46 c0.36 0.04 0.78 -0.16 1.22 -0.6 c1.88 -1.86 3.18 -6.84 2.74 -10.44 l2.3 -0.28 c0.54 4.34 -1.02 10 -3.4 12.38 c-1.02 1 -2 1.26 -2.76 1.26 z M81.675 19.86 l-0.86 -10.3 l-2.82 5.3 l-2.12 -0.14 l-1.64 -4.42 l-1.26 6.88 l-2.28 -0.42 l2 -11.02 l2.24 -0.2 l2.22 5.96 l3.46 -6.52 l2.18 0.46 l1.18 14.22 z M106.74 2.4200000000000017 l0 2.32 l-2.06 0 c0.02 2.88 -0.22 9.14 -2.72 11.16 c-1.12 0.9 -2.2 1.22 -3.16 1.22 c-1.44 0 -2.62 -0.7 -3.2 -1.3 l1.64 -1.64 c0.22 0.22 1.54 1.32 3.26 -0.08 c1.36 -1.12 1.88 -5.82 1.86 -9.36 l-2.02 0 l0 -2.32 l6.4 0 z M119.2525 13.54 l-1.7 0.16 l0.76 6.58 l-2.3 0.26 l-0.76 -6.62 l-3.96 0.36 l-1.82 3.42 l-2.04 -1.08 l1.12 -2.12 l-0.22 -2.26 l1.5 -0.14 l4.46 -8.34 l2.16 0.42 l0.84 7.22 l1.74 -0.18 z M112.6125 11.84 l2.36 -0.24 l-0.4 -3.46 z M135.045 9.76 l-2.38 0.9 c-0.04 0.26 -0.1 0.58 -0.18 0.94 l-1.68 10.2 l-2.28 -0.36 l0.74 -4.46 c-0.46 0.32 -0.98 0.6 -1.58 0.8 c-1.48 0.52 -2.92 0.24 -3.94 -0.76 c-1.58 -1.54 -1.94 -4.5 -0.92 -7.52 c1.06 -3.24 3.4 -4.76 5.24 -4.84 c1.42 -0.06 2.6 0.68 3.16 1.96 l-2.14 0.92 c-0.06 -0.14 -0.24 -0.58 -0.92 -0.56 c-1.02 0.04 -2.42 1.08 -3.14 3.24 c-0.8 2.38 -0.42 4.4 0.34 5.14 c0.14 0.16 0.58 0.58 1.56 0.24 c1.84 -0.66 2.74 -2.52 3.16 -3.96 l-2.46 0.94 l-0.84 -2.16 l7.44 -2.82 z M146.0375 13.54 l-1.7 0.16 l0.76 6.58 l-2.3 0.26 l-0.76 -6.62 l-3.96 0.36 l-1.82 3.42 l-2.04 -1.08 l1.12 -2.12 l-0.22 -2.26 l1.5 -0.14 l4.46 -8.34 l2.16 0.42 l0.84 7.22 l1.74 -0.18 z M139.3975 11.84 l2.36 -0.24 l-0.4 -3.46 z M150.65 18.68 l-2.28 -0.38 l1.9 -11.68 l2.18 -0.34 l3.04 5.94 l2.82 -11.18 l2.24 0.56 l-3.56 14.18 l-2.16 0.24 l-2.84 -5.54 z"></path></g></svg>